# xmcd CD database file
#
# Track frame offsets:
#	150
#	14083
#	35834
#	53697
#	65951
#	82169
#	90513
#	103047
#	127124
#	150730
#	166973
#	179797
#	191855
#	204240
#	220812
#	236827
#	246943
#	257375
#	279372
#	292738
#	306027
#	322280
#
# Disc length: 4519 seconds
#
# Revision: 0
# Processed by: cddbd v1.5.2PL0 Copyright (c) Steve Scherf et al.
# Submitted via: CDex 1.70beta2
#
DISCID=5111a516
DTITLE=Al Haig Trio - One Day Session
DYEAR=1954
DGENRE=Jazz
TTITLE0=Yardbird Suite
TTITLE1=Mighty Like A Rose
TTITLE2=Just One Of Those Things
TTITLE3=Taboo
TTITLE4='S Wonderful
TTITLE5=Just You, Just Me-Spotlite 
TTITLE6=The Moon Is Yellow
TTITLE7='Round About Midnight
TTITLE8=Autumn In New York
TTITLE9=Isn't Romantic
TTITLE10=They Can't Take That Away From Me
TTITLE11=Royal Garden Blues
TTITLE12=Don't Blame Me
TTITLE13=Moonlight In Vermont
TTITLE14=If I Should Lose You
TTITLE15=April In Paris
TTITLE16=All God,s Chillun Got Rhythm
TTITLE17=Body And Soul
TTITLE18=Gone With The Wind
TTITLE19=My Old Flame
TTITLE20=On The Alamo
TTITLE21=Taking A Chance On Love
EXTD=YEAR: 1954
EXTT0=
EXTT1=
EXTT2=
EXTT3=
EXTT4=
EXTT5=
EXTT6=
EXTT7=
EXTT8=
EXTT9=
EXTT10=
EXTT11=
EXTT12=
EXTT13=
EXTT14=
EXTT15=
EXTT16=
EXTT17=
EXTT18=
EXTT19=
EXTT20=
EXTT21=
PLAYORDER=
